<?xml version="1.0" encoding="utf-8"?>
<!-- Generator: Adobe Illustrator 22.0.1, SVG Export Plug-In . SVG Version: 6.00 Build 0)  -->
<svg version="1.1" id="Layer_1" xmlns="http://www.w3.org/2000/svg" xmlns:xlink="http://www.w3.org/1999/xlink" x="0px" y="0px"
	 viewBox="0 0 500 500" style="enable-background:new 0 0 500 500;" xml:space="preserve">
<style type="text/css">
	.st0{stroke:#000000;stroke-miterlimit:10;}
	.st1{fill:#FFFFFF;stroke:#FFFFFF;stroke-miterlimit:10;}
</style>
<polygon class="st0" points="24.8,383.4 24.8,383.4 24.8,383.4 "/>
<polygon class="st0" points="476.2,383.4 476.2,383.4 476.2,383.4 "/>
<path class="st1" d="M484.5,321.5c0,21.4-2.9,42.1-8.3,61.8l-37.7-31.8l-9,11l-13-16l-9,8l-34-27l-16,12l-27,8l-34-34l-15-7l-18-27
	l-32,14l-18,17l-22,7l-26,31l-10-8l-21,29l-37-29l-20,22l-24-3l-28.7,23.8c-5.4-19.7-8.3-40.4-8.3-61.8c0-129.2,104.8-234,234-234
	S484.5,192.3,484.5,321.5z"/>
</svg>
